<?xml version="1.0" encoding="utf-8"?>
<!-- Generator: Adobe Illustrator 15.0.0, SVG Export Plug-In . SVG Version: 6.00 Build 0)  -->
<!DOCTYPE svg PUBLIC "-//W3C//DTD SVG 1.1//EN" "http://www.w3.org/Graphics/SVG/1.1/DTD/svg11.dtd">
<svg version="1.1" id="Layer_1" xmlns="http://www.w3.org/2000/svg" xmlns:xlink="http://www.w3.org/1999/xlink" x="0px" y="0px"
	 width="432px" height="144px" viewBox="0 0 432 144" enable-background="new 0 0 432 144" xml:space="preserve">
<g>
	<defs>
		<path id="SVGID_1_" d="M27.322,51.019c0-4.208,2.486-6.981,6.599-6.981c4.112,0,6.598,2.774,6.598,6.981v1.817h0.192
			c3.634-5.546,9.755-8.798,16.83-8.798c4.783,0,10.808,2.2,13.39,8.798c3.92-5.451,8.893-8.798,16.448-8.798
			c9.659,0,17.404,4.4,17.404,16.927v28.594c0,3.729-1.529,6.981-6.981,6.981c-5.451,0-6.98-3.252-6.98-6.981V64.503
			c0-4.973-2.2-8.989-7.65-8.989c-5.356,0-10.138,4.305-10.138,10.807v23.238c0,3.729-1.529,6.981-6.98,6.981
			c-5.45,0-6.981-3.252-6.981-6.981V64.503c0-4.973-2.2-8.989-7.652-8.989c-5.354,0-10.137,4.305-10.137,10.807v23.238
			c0,3.729-1.529,6.981-6.98,6.981c-5.452,0-6.981-3.252-6.981-6.981V51.019z M169.423,32.18c0-4.591,2.773-6.982,6.981-6.982
			c4.208,0,6.981,2.391,6.981,6.982v57.378c0,4.591-2.773,6.981-6.981,6.981c-4.208,0-6.981-2.391-6.981-6.981V32.18z
			 M246.764,51.019c0-4.208,1.914-6.981,6.312-6.981c4.399,0,6.312,2.774,6.312,6.981v1.817h0.192
			c3.92-5.164,8.987-8.798,16.926-8.798c8.416,0,17.597,4.208,17.597,18.362v27.159c0,3.729-1.53,6.981-6.982,6.981
			c-5.45,0-6.979-3.252-6.979-6.981V65.174c0-5.644-2.774-9.66-8.799-9.66c-4.877,0-10.615,4.017-10.615,10.998v23.047
			c0,3.729-1.53,6.981-6.981,6.981s-6.981-3.252-6.981-6.981V51.019z M369.739,72.92c0,7.362,4.78,12.718,12.909,12.718
			c10.52,0,10.52-6.886,16.162-6.886c3.348,0,5.738,2.869,5.738,5.451c0,8.416-13.483,12.337-21.9,12.337
			c-19.508,0-26.872-13.197-26.872-25.343c0-16.258,9.851-27.16,26.396-27.16c16.065,0,25.246,11.38,25.246,22.857
			c0,4.781-1.435,6.025-6.121,6.025H369.739z M394.221,64.885c-0.764-6.406-5.547-11.092-11.763-11.092
			c-6.981,0-11.188,4.304-12.719,11.092H394.221z M343.349,44.037c-4.112,0-6.311,2.295-6.311,6.6v1.721h-0.192
			c-2.583-5.165-7.938-8.321-14.729-8.321c-11.762,0-21.899,8.512-21.899,26.586c0,13.771,7.651,23.335,22.379,23.335
			c5.546,0,10.998-3.061,13.483-6.695h0.191v2.87c0,6.772-1.335,10.973-4.327,13.225c-1.767,1.152-3.826,1.716-5.652,1.766
			c-8.404,0.229-13.988-4.192-25.645-4.07c-5.742,0.058-9.687,5.682-10.979,7.035c4.09,0,5.115-0.017,8.825,0
			c13.383,0.06,15.373,7.167,27.798,7.167c3.892,0,8.083-0.654,11.057-2.006l0.014,0.022c7.56-3.485,12.298-10.7,12.298-22.087
			V50.637C349.66,46.333,347.652,44.037,343.349,44.037z M325.273,83.629c-7.937,0-11.093-7.076-11.093-13.484
			c0-8.606,2.772-15.205,11.762-15.205c6.503,0,10.329,4.495,10.329,14.632C336.271,79.518,331.49,83.629,325.273,83.629z
			 M166.978,77.126l-25.288-0.007l3.832,6.638c-1.785,1.065-4.143,1.881-7.75,1.881c-8.129,0-12.91-5.355-12.91-12.718h31.557
			c4.687,0,6.121-1.244,6.121-6.025c0-11.477-9.18-22.857-25.247-22.857c-16.544,0-26.394,10.902-26.394,27.16
			c0,12.146,7.364,25.343,26.873,25.343c4.029,0,9.216-0.9,13.532-2.761l3.025,5.243L166.978,77.126z M137.581,53.792
			c6.216,0,10.998,4.686,11.763,11.092h-24.481C126.392,58.096,130.6,53.792,137.581,53.792z M237.587,81.812V58.383
			c0-10.042-9.275-14.346-22.664-14.346c-4.817,0-8.881,0.809-12.182,2.08l-2.915-5.033l-12.614,21.917l25.288-0.033l-4.17-7.2
			c1.632-0.825,3.686-1.4,6.497-1.4c4.686,0,8.798,1.721,8.798,5.737s-2.678,4.78-6.024,5.164l-8.512,0.956
			c-10.71,1.244-19.508,4.494-19.508,16.067c0,8.797,7.842,14.248,15.779,14.248c7.364,0,13.676-2.104,19.128-8.129
			c0.189,4.303,2.199,8.129,8.224,8.129c3.347,0,6.311-2.199,6.311-5.354C239.021,88.985,237.587,87.647,237.587,81.812z
			 M223.625,77.223c0,5.163-4.686,10.137-12.336,10.137c-4.782,0-7.747-2.582-7.747-5.738c0-4.208,3.156-6.024,8.99-6.886
			l5.069-0.765c1.625-0.287,4.495-0.765,6.024-2.199V77.223z"/>
	</defs>
	<clipPath id="SVGID_2_">
		<use xlink:href="#SVGID_1_"  overflow="visible"/>
	</clipPath>
	<g clip-path="url(#SVGID_2_)">
		<linearGradient id="SVGID_3_" gradientUnits="userSpaceOnUse" x1="223.8184" y1="56.0869" x2="223.8184" y2="116.403">
			<stop  offset="0" style="stop-color:#0071B2"/>
			<stop  offset="0.1739" style="stop-color:#117BBA"/>
			<stop  offset="0.5371" style="stop-color:#338DCA"/>
			<stop  offset="0.7802" style="stop-color:#3D95D2"/>
		</linearGradient>
		<rect x="15.554" y="55.586" fill="url(#SVGID_3_)" width="416.529" height="61.039"/>
		<linearGradient id="SVGID_4_" gradientUnits="userSpaceOnUse" x1="223.8174" y1="64.5415" x2="223.8174" y2="0.3594">
			<stop  offset="0" style="stop-color:#14A4DE"/>
			<stop  offset="0.2368" style="stop-color:#219BD7"/>
			<stop  offset="0.6136" style="stop-color:#3289C9"/>
		</linearGradient>
		<path fill="url(#SVGID_4_)" d="M406.574,73.99c-92.38-22.412-338.908-21.319-387.558-2.187C0.817,78.96,16.83-0.352,16.83-0.352
			h406.69C423.52-0.352,463.86,87.888,406.574,73.99z"/>
	</g>
</g>
</svg>
