<?xml version="1.0" encoding="utf-8"?>
<!-- Generator: Adobe Illustrator 15.0.0, SVG Export Plug-In . SVG Version: 6.00 Build 0)  -->
<!DOCTYPE svg PUBLIC "-//W3C//DTD SVG 1.1//EN" "http://www.w3.org/Graphics/SVG/1.1/DTD/svg11.dtd">
<svg version="1.1" id="Layer_1" xmlns="http://www.w3.org/2000/svg" xmlns:xlink="http://www.w3.org/1999/xlink" x="0px" y="0px"
	 width="432px" height="144px" viewBox="0 0 432 144" enable-background="new 0 0 432 144" xml:space="preserve">
<g>
	<defs>
		<path id="SVGID_1_" d="M27.214,51.266c0-4.199,2.481-6.967,6.585-6.967s6.584,2.768,6.584,6.967v1.813h0.192
			c3.626-5.535,9.735-8.78,16.795-8.78c4.773,0,10.785,2.195,13.363,8.78c3.912-5.439,8.874-8.78,16.414-8.78
			c9.639,0,17.369,4.391,17.369,16.893v28.534c0,3.723-1.526,6.969-6.967,6.969c-5.44,0-6.966-3.246-6.966-6.969V64.721
			c0-4.962-2.196-8.971-7.635-8.971c-5.345,0-10.117,4.296-10.117,10.785v23.189c0,3.723-1.526,6.969-6.966,6.969
			c-5.439,0-6.967-3.246-6.967-6.969V64.721c0-4.962-2.195-8.971-7.636-8.971c-5.343,0-10.116,4.296-10.116,10.785v23.189
			c0,3.723-1.525,6.969-6.966,6.969c-5.44,0-6.967-3.246-6.967-6.969V51.266z M169.022,32.465c0-4.581,2.768-6.967,6.967-6.967
			s6.967,2.386,6.967,6.967v57.26c0,4.582-2.768,6.969-6.967,6.969s-6.967-2.387-6.967-6.969V32.465z M246.205,51.266
			c0-4.199,1.909-6.967,6.299-6.967c4.391,0,6.299,2.768,6.299,6.967v1.813h0.191c3.912-5.154,8.969-8.78,16.892-8.78
			c8.398,0,17.561,4.199,17.561,18.324v27.102c0,3.723-1.528,6.969-6.968,6.969s-6.966-3.246-6.966-6.969V65.391
			c0-5.632-2.769-9.641-8.78-9.641c-4.867,0-10.594,4.008-10.594,10.975v23c0,3.723-1.527,6.969-6.967,6.969
			c-5.44,0-6.967-3.246-6.967-6.969V51.266z M368.927,73.121c0,7.348,4.771,12.691,12.884,12.691
			c10.497,0,10.497-6.871,16.128-6.871c3.341,0,5.727,2.863,5.727,5.439c0,8.398-13.456,12.312-21.854,12.312
			c-19.469,0-26.817-13.172-26.817-25.292c0-16.225,9.83-27.104,26.341-27.104c16.032,0,25.194,11.356,25.194,22.81
			c0,4.771-1.432,6.013-6.108,6.013H368.927z M393.358,65.103c-0.763-6.394-5.536-11.07-11.739-11.07
			c-6.967,0-11.165,4.295-12.692,11.07H393.358z M342.591,44.298c-4.104,0-6.298,2.291-6.298,6.585v1.717h-0.192
			c-2.577-5.153-7.92-8.303-14.697-8.303c-11.738,0-21.854,8.494-21.854,26.531c0,13.744,7.635,23.287,22.333,23.287
			c5.533,0,10.975-3.055,13.455-6.682h0.19v2.865c0,6.758-1.331,10.949-4.318,13.197c-1.762,1.15-3.817,1.713-5.64,1.762
			c-8.388,0.229-13.96-4.184-25.592-4.062c-5.73,0.059-9.667,5.67-10.956,7.021c4.082,0,5.104-0.018,8.807,0
			c13.355,0.061,15.342,7.152,27.741,7.152c3.883,0,8.066-0.652,11.033-2.002l0.014,0.021c7.545-3.477,12.273-10.678,12.273-22.041
			V50.883C348.89,46.588,346.885,44.298,342.591,44.298z M324.553,83.809c-7.921,0-11.07-7.062-11.07-13.457
			c0-8.589,2.768-15.175,11.738-15.175c6.489,0,10.307,4.486,10.307,14.603C335.527,79.705,330.757,83.809,324.553,83.809z
			 M166.583,77.318l-25.236-0.006l3.824,6.623c-1.781,1.062-4.134,1.877-7.734,1.877c-8.112,0-12.883-5.344-12.883-12.691h31.492
			c4.677,0,6.108-1.242,6.108-6.013c0-11.453-9.161-22.81-25.194-22.81c-16.51,0-26.339,10.879-26.339,27.104
			c0,12.12,7.348,25.292,26.817,25.292c4.021,0,9.197-0.898,13.504-2.756l3.02,5.232L166.583,77.318z M137.246,54.033
			c6.203,0,10.975,4.676,11.739,11.07h-24.432C126.08,58.328,130.279,54.033,137.246,54.033z M237.046,81.996V58.615
			c0-10.021-9.256-14.316-22.617-14.316c-4.807,0-8.862,0.808-12.157,2.075l-2.909-5.023l-12.588,21.873l25.236-0.033l-4.162-7.186
			c1.629-0.824,3.678-1.398,6.483-1.398c4.677,0,8.78,1.717,8.78,5.726s-2.672,4.771-6.012,5.153l-8.495,0.954
			c-10.688,1.242-19.468,4.485-19.468,16.036c0,8.779,7.826,14.219,15.746,14.219c7.35,0,13.648-2.1,19.089-8.113
			c0.189,4.295,2.194,8.113,8.207,8.113c3.34,0,6.298-2.195,6.298-5.344C238.479,89.152,237.046,87.818,237.046,81.996z
			 M223.113,77.416c0,5.152-4.676,10.115-12.311,10.115c-4.772,0-7.73-2.576-7.73-5.727c0-4.199,3.149-6.012,8.971-6.871
			l5.059-0.764c1.621-0.287,4.485-0.764,6.012-2.195V77.416z"/>
	</defs>
	<clipPath id="SVGID_2_">
		<use xlink:href="#SVGID_1_"  overflow="visible"/>
	</clipPath>
	<g clip-path="url(#SVGID_2_)">
		<linearGradient id="SVGID_3_" gradientUnits="userSpaceOnUse" x1="223.3066" y1="56.3228" x2="223.3066" y2="116.5148">
			<stop  offset="0" style="stop-color:#F15B22"/>
			<stop  offset="1" style="stop-color:#F36C21"/>
		</linearGradient>
		<rect x="15.47" y="55.823" fill="url(#SVGID_3_)" width="415.673" height="60.913"/>
		<linearGradient id="SVGID_4_" gradientUnits="userSpaceOnUse" x1="223.3047" y1="75.6709" x2="223.3047" y2="26.9293">
			<stop  offset="0" style="stop-color:#F57E20"/>
			<stop  offset="1" style="stop-color:#F36F21"/>
		</linearGradient>
		<path fill="url(#SVGID_4_)" d="M405.687,74.189c-92.19-22.367-338.212-21.275-386.762-2.183C0.763,79.148,16.743,0,16.743,0
			h405.855C422.598,0,462.854,88.059,405.687,74.189z"/>
	</g>
</g>
</svg>
