<?xml version="1.0" encoding="utf-8"?>
<!-- Generator: Adobe Illustrator 15.0.0, SVG Export Plug-In . SVG Version: 6.00 Build 0)  -->
<!DOCTYPE svg PUBLIC "-//W3C//DTD SVG 1.1//EN" "http://www.w3.org/Graphics/SVG/1.1/DTD/svg11.dtd">
<svg version="1.1" id="Layer_1" xmlns="http://www.w3.org/2000/svg" xmlns:xlink="http://www.w3.org/1999/xlink" x="0px" y="0px"
	 width="432px" height="144px" viewBox="0 0 432 144" enable-background="new 0 0 432 144" xml:space="preserve">
<g>
	<g>
		<path fill="#F26522" d="M26.979,52.104c0-4.202,2.483-6.972,6.59-6.972c4.106,0,6.589,2.77,6.589,6.972v1.814h0.191
			c3.629-5.539,9.742-8.787,16.808-8.787c4.776,0,10.792,2.197,13.372,8.787c3.916-5.443,8.88-8.787,16.426-8.787
			c9.646,0,17.381,4.394,17.381,16.904v28.556c0,3.724-1.527,6.971-6.972,6.971c-5.444,0-6.971-3.247-6.971-6.971V65.569
			c0-4.966-2.197-8.977-7.64-8.977c-5.35,0-10.125,4.298-10.125,10.792v23.208c0,3.724-1.527,6.971-6.971,6.971
			c-5.443,0-6.972-3.247-6.972-6.971V65.569c0-4.966-2.197-8.977-7.641-8.977c-5.348,0-10.124,4.298-10.124,10.792v23.208
			c0,3.724-1.527,6.971-6.971,6.971c-5.444,0-6.972-3.247-6.972-6.971V52.104z"/>
		<path fill="#F26522" d="M168.887,33.29c0-4.584,2.769-6.972,6.971-6.972c4.203,0,6.972,2.388,6.972,6.972v57.302
			c0,4.583-2.769,6.971-6.972,6.971c-4.202,0-6.971-2.388-6.971-6.971V33.29z"/>
		<path fill="#F26522" d="M246.123,52.104c0-4.202,1.91-6.972,6.303-6.972c4.394,0,6.304,2.77,6.304,6.972v1.814h0.191
			c3.915-5.157,8.976-8.787,16.903-8.787c8.404,0,17.573,4.203,17.573,18.336v27.124c0,3.724-1.529,6.971-6.973,6.971
			s-6.971-3.247-6.971-6.971V66.238c0-5.635-2.771-9.646-8.787-9.646c-4.87,0-10.602,4.011-10.602,10.982v23.017
			c0,3.724-1.527,6.971-6.971,6.971c-5.444,0-6.972-3.247-6.972-6.971V52.104z"/>
		<path fill="#F26522" d="M368.931,73.974c0,7.353,4.774,12.702,12.893,12.702c10.506,0,10.506-6.877,16.14-6.877
			c3.343,0,5.73,2.866,5.73,5.444c0,8.403-13.466,12.319-21.87,12.319c-19.482,0-26.836-13.179-26.836-25.308
			c0-16.235,9.837-27.123,26.359-27.123c16.044,0,25.212,11.365,25.212,22.826c0,4.775-1.433,6.017-6.112,6.017H368.931z
			 M393.379,65.952c-0.764-6.399-5.539-11.079-11.747-11.079c-6.972,0-11.174,4.298-12.701,11.079H393.379z"/>
		<path fill="#F26522" d="M342.575,45.131c-4.106,0-6.302,2.292-6.302,6.59v1.719h-0.191c-2.579-5.157-7.927-8.309-14.708-8.309
			c-11.746,0-21.869,8.5-21.869,26.55c0,13.752,7.64,23.303,22.348,23.303c5.538,0,10.982-3.056,13.465-6.685h0.191v2.864
			c0,6.766-1.333,10.958-4.322,13.207c-1.763,1.15-3.819,1.715-5.645,1.765c-8.393,0.228-13.969-4.187-25.609-4.065
			c-5.733,0.058-9.674,5.673-10.963,7.024c4.085,0,5.108-0.017,8.812,0c13.365,0.062,15.353,7.158,27.76,7.158
			c3.888,0,8.072-0.654,11.042-2.004l0.014,0.022c7.55-3.479,12.281-10.686,12.281-22.056V51.721
			C348.879,47.423,346.873,45.131,342.575,45.131z M324.525,84.669c-7.926,0-11.078-7.066-11.078-13.466
			c0-8.595,2.77-15.185,11.747-15.185c6.494,0,10.314,4.488,10.314,14.612C335.509,80.562,330.733,84.669,324.525,84.669z"/>
	</g>
	<path fill="#F26522" d="M166.445,78.175l-25.253-0.007l3.825,6.63c-1.782,1.063-4.136,1.878-7.738,1.878
		c-8.118,0-12.893-5.35-12.893-12.702h31.515c4.68,0,6.112-1.242,6.112-6.017c0-11.46-9.167-22.826-25.212-22.826
		c-16.521,0-26.359,10.888-26.359,27.123c0,12.129,7.354,25.308,26.837,25.308c4.023,0,9.202-0.899,13.514-2.758l3.021,5.237
		L166.445,78.175z M137.087,54.873c6.208,0,10.982,4.68,11.748,11.079h-24.449C125.914,59.171,130.116,54.873,137.087,54.873z"/>
	<path fill="#F26522" d="M236.958,82.855V59.457c0-10.028-9.263-14.326-22.633-14.326c-4.81,0-8.869,0.808-12.165,2.077l-2.91-5.026
		l-12.598,21.887l25.254-0.033l-4.165-7.19c1.63-0.824,3.68-1.4,6.488-1.4c4.679,0,8.786,1.719,8.786,5.73s-2.673,4.775-6.016,5.157
		l-8.5,0.955c-10.696,1.242-19.482,4.488-19.482,16.044c0,8.786,7.831,14.229,15.757,14.229c7.354,0,13.658-2.101,19.102-8.117
		c0.189,4.297,2.196,8.117,8.213,8.117c3.342,0,6.302-2.196,6.302-5.348C238.391,90.018,236.958,88.682,236.958,82.855z
		 M223.015,78.271c0,5.156-4.679,10.123-12.319,10.123c-4.775,0-7.735-2.579-7.735-5.729c0-4.202,3.151-6.017,8.977-6.877
		l5.062-0.764c1.623-0.287,4.489-0.764,6.016-2.197V78.271z"/>
</g>
</svg>
